<svg width="40" height="40" viewBox="0 0 40 40" fill="none" xmlns="http://www.w3.org/2000/svg">
<path d="M34.1406 20.9495H30.2252C29.6923 20.9495 29.1763 21.0223 28.6853 21.1562C27.7167 19.2521 25.7392 17.9438 23.4605 17.9438H16.5395C14.2608 17.9438 12.2833 19.2521 11.3147 21.1562C10.8237 21.0223 10.3077 20.9495 9.77484 20.9495H5.85938C2.62852 20.9495 0 23.578 0 26.8088V33.0681C0 35.0066 1.57711 36.5837 3.51562 36.5837H36.4844C38.4229 36.5837 40 35.0066 40 33.0681V26.8088C40 23.578 37.3715 20.9495 34.1406 20.9495ZM10.6801 23.8034V34.24H3.51562C2.86945 34.24 2.34375 33.7143 2.34375 33.0681V26.8089C2.34375 24.8704 3.92086 23.2933 5.85938 23.2933H9.77484C10.093 23.2933 10.401 23.3365 10.6943 23.4161C10.6859 23.5443 10.6801 23.6732 10.6801 23.8034ZM26.9762 34.24H13.0238V23.8033C13.0238 21.8648 14.6009 20.2877 16.5395 20.2877H23.4605C25.3991 20.2877 26.9762 21.8648 26.9762 23.8033V34.24ZM37.6562 33.0681C37.6562 33.7143 37.1305 34.24 36.4844 34.24H29.3199V23.8033C29.3199 23.6731 29.3141 23.5442 29.3057 23.416C29.599 23.3365 29.907 23.2932 30.2252 23.2932H34.1406C36.0791 23.2932 37.6562 24.8703 37.6562 26.8088V33.0681Z" fill="#1A3967"/>
<path d="M7.81719 9.8833C4.94618 9.8833 2.61047 12.219 2.61047 15.09C2.6104 17.961 4.94618 20.2967 7.81719 20.2967C10.6881 20.2967 13.0239 17.961 13.0239 15.09C13.0239 12.219 10.6882 9.8833 7.81719 9.8833ZM7.81711 17.953C6.23844 17.953 4.95415 16.6687 4.95415 15.09C4.95415 13.5113 6.23844 12.2271 7.81711 12.2271C9.39579 12.2271 10.6801 13.5113 10.6801 15.09C10.6801 16.6687 9.39579 17.953 7.81711 17.953Z" fill="#1A3967"/>
<path d="M20 3.41626C16.1644 3.41626 13.0439 6.53673 13.0439 10.3724C13.0439 14.208 16.1644 17.3284 20 17.3284C23.8356 17.3284 26.9561 14.208 26.9561 10.3724C26.9561 6.53681 23.8356 3.41626 20 3.41626ZM20 14.9847C17.4567 14.9847 15.3876 12.9156 15.3876 10.3724C15.3876 7.82915 17.4567 5.76001 20 5.76001C22.5433 5.76001 24.6123 7.82907 24.6123 10.3724C24.6123 12.9156 22.5433 14.9847 20 14.9847Z" fill="#1A3967"/>
<path d="M32.1828 9.8833C29.3119 9.8833 26.9761 12.219 26.9761 15.09C26.9762 17.961 29.3119 20.2967 32.1828 20.2967C35.0538 20.2967 37.3895 17.961 37.3895 15.09C37.3895 12.219 35.0538 9.8833 32.1828 9.8833ZM32.1828 17.953C30.6042 17.953 29.3198 16.6687 29.3198 15.09C29.3199 13.5113 30.6042 12.2271 32.1828 12.2271C33.7615 12.2271 35.0458 13.5113 35.0458 15.09C35.0458 16.6687 33.7615 17.953 32.1828 17.953Z" fill="#1A3967"/>
</svg>
