<svg width="41" height="40" viewBox="0 0 41 40" fill="none" xmlns="http://www.w3.org/2000/svg">
<g clip-path="url(#clip0)">
<path d="M0 20C0 31.0114 9.08571 39.9992 20.2184 40H20.2195H20.2201C31.3533 39.9998 40.4396 31.0118 40.4396 20C40.4396 8.98758 31.3526 0 20.2198 0C9.10056 0 0 8.97805 0 20ZM2.36951 20C2.36951 16.495 3.40751 13.2254 5.19522 10.4758L7.44514 11.0177C7.8403 11.1155 8.16058 11.3834 8.32368 11.7529C8.48662 12.1218 8.46688 12.5372 8.26957 12.8925C7.41244 14.4361 7.92773 16.4277 9.44256 17.4266L14.5617 20.8023L15.7386 23.1304C16.1394 23.9233 15.9829 24.8771 15.3492 25.504L14.643 26.2025C14.1803 26.6602 14.1803 27.4021 14.643 27.8598L16.0566 29.258C16.4493 29.6464 16.6654 30.1627 16.6654 30.7119C16.6654 33.0931 17.2139 35.4535 18.2502 37.5481C9.33103 36.5755 2.36951 29.0773 2.36951 20ZM17.858 22.0823L17.3978 21.1719H17.5706C18.7531 21.1719 19.8161 21.8217 20.3449 22.8678C21.2777 24.713 23.1528 25.8594 25.2386 25.8594H26.1435V27.0312C26.1435 27.9788 25.7681 28.8672 25.0863 29.533C22.8995 31.6688 21.2642 33.8031 20.1367 36.001C19.4235 34.3679 19.035 32.5151 19.035 30.712C19.035 29.5368 18.5723 28.432 17.7322 27.6009L17.1536 27.0286C18.4013 25.6879 18.6878 23.7238 17.858 22.0823ZM22.0016 37.5685C23.0117 35.4211 24.5773 33.3239 26.7511 31.2009C27.8873 30.0912 28.513 28.6105 28.513 27.0312V24.6875C28.513 24.0403 27.9826 23.5156 27.3283 23.5156H25.2385C24.056 23.5156 22.993 22.8658 22.4642 21.8197C21.5315 19.9745 19.6563 18.8281 17.5706 18.8281H16.213L15.8528 18.1154C15.2144 16.8525 15.7933 15.3159 17.1708 14.617C18.3032 14.0426 19.035 12.7857 19.035 11.4151V10.625C19.035 9.97883 19.5665 9.45312 20.2198 9.45312H21.6493C24.086 9.45312 25.7955 7.07594 25.0164 4.81164L24.3451 2.82063C27.0019 3.44477 29.4305 4.65781 31.482 6.31234L31.1203 7.3857C31.0624 7.5575 30.9634 7.71586 30.8341 7.84383L29.5541 9.10992C28.8828 9.77391 28.513 10.6568 28.513 11.5959V12.9688C28.513 14.9073 30.1075 16.4844 32.0673 16.4844C32.7206 16.4844 33.2521 17.0101 33.2521 17.6562V19.4467C33.2521 19.6277 33.2088 19.8089 33.127 19.9708L32.7222 20.7716C32.1674 21.8694 32.2255 23.148 32.8778 24.192C33.5302 25.2361 34.6604 25.8586 35.9012 25.8586H37.0584C34.7994 32.1913 28.9873 36.8805 22.0016 37.5685ZM38.0701 20C38.0701 21.2035 37.9472 22.3791 37.7142 23.5156H35.9012C35.3051 23.5156 34.9978 23.127 34.8934 22.9598C34.789 22.7927 34.575 22.3471 34.8415 21.8197L35.2464 21.0189C35.4918 20.5333 35.6216 19.9896 35.6216 19.4467V17.6562C35.6216 15.7177 34.0271 14.1406 32.0673 14.1406C31.414 14.1406 30.8826 13.6149 30.8826 12.9688V11.5958C30.8826 11.2827 31.0058 10.9884 31.2295 10.7672L32.5095 9.50117C32.8977 9.11734 33.1946 8.64219 33.3682 8.12695L33.382 8.08625C36.2918 11.2288 38.0701 15.4127 38.0701 20ZM20.2198 2.34375C20.7208 2.34375 21.2167 2.36531 21.7074 2.40555L22.7709 5.55984C23.0329 6.32109 22.462 7.10938 21.6493 7.10938H20.2198C18.26 7.10938 16.6655 8.68648 16.6655 10.6249V11.415C16.6655 11.9081 16.434 12.3568 16.0894 12.5316C14.2407 13.4695 13.1886 15.2608 13.2191 17.1002L10.757 15.4766C10.2568 15.1467 10.0765 14.5073 10.3466 14.0208C10.9004 13.0234 10.9545 11.8549 10.4952 10.8148C10.0356 9.77406 9.13342 9.0193 8.01288 8.74227L6.74164 8.43602C10.0169 4.70609 14.8446 2.34375 20.2198 2.34375Z" fill="#1A3967"/>
</g>
<defs>
<clipPath id="clip0">
<rect width="40.4396" height="40" fill="white"/>
</clipPath>
</defs>
</svg>
