<svg width="41" height="40" viewBox="0 0 41 40" fill="none" xmlns="http://www.w3.org/2000/svg">
<path d="M37.3261 6.30855C34.4854 6.2015 32.2323 3.93808 32.1967 1.15566L32.1819 0H8.74766L8.7329 1.15566C8.69725 3.93808 6.44423 6.2015 3.60357 6.30855L2.45333 6.35193V15.7774C2.45333 24.2918 6.96615 32.1916 14.2307 36.3939L20.4648 40L26.6989 36.3939C33.9636 32.1917 38.4764 24.2919 38.4764 15.7774V6.35193L37.3261 6.30855ZM36.0837 15.7774C36.0837 23.4683 32.021 30.5961 25.4811 34.3791L20.4648 37.2808L15.4485 34.3791C8.9086 30.5961 4.84592 23.4683 4.84592 15.7774V8.52024C8.01933 7.93234 10.4914 5.45694 11.0207 2.34066H29.9089C30.4382 5.45686 32.9103 7.93234 36.0837 8.52024V15.7774Z" fill="#1A3967"/>
<path d="M21.6612 13.4055H19.2685V17.1812H15.4088V19.5219H19.2685V23.2977H21.6612V19.5219H25.5208V17.1812H21.6612V13.4055Z" fill="#1A3967"/>
<path d="M20.4648 8.11426C14.6945 8.11426 9.99998 12.7067 9.99998 18.3516C9.99998 23.9965 14.6945 28.5889 20.4648 28.5889C26.2352 28.5889 30.9297 23.9965 30.9297 18.3516C30.9297 12.7067 26.2352 8.11426 20.4648 8.11426ZM20.4648 26.2484C16.0138 26.2484 12.3927 22.7059 12.3927 18.3517C12.3927 13.9974 16.0138 10.4549 20.4648 10.4549C24.9158 10.4549 28.537 13.9973 28.537 18.3516C28.537 22.7059 24.9158 26.2484 20.4648 26.2484Z" fill="#1A3967"/>
</svg>
