<svg width="40" height="40" viewBox="0 0 40 40" fill="none" xmlns="http://www.w3.org/2000/svg">
<g clip-path="url(#clip0)">
<path d="M22.3672 5.29813H17.8808C17.7955 5.23008 17.7056 5.16672 17.6126 5.10961V1.955C17.6125 0.876641 16.7359 0 15.6575 0H11.078C10.0005 0 9.12304 0.876641 9.12304 1.955V5.10961C8.34023 5.59211 7.8171 6.45703 7.8171 7.44234V16.5403C7.8171 17.7791 8.64445 18.8285 9.77609 19.1648V22.0981C9.77609 23.1766 10.6535 24.0531 11.7311 24.0531H15.0046C16.083 24.0531 16.9596 23.1765 16.9596 22.0981V19.1648C18.0912 18.8286 18.9185 17.7791 18.9185 16.5404V13.1645H20.8477C24.7288 13.1645 27.8866 16.3223 27.8866 20.2034V21.948C24.6303 22.4806 22.1373 25.3138 22.1373 28.7188V30.8912H5.31374C4.66624 30.8912 4.1407 31.4167 4.1407 32.0642V38.8271C4.1407 39.4754 4.66624 40.0002 5.31374 40.0002H34.6862C35.3337 40.0002 35.8592 39.4754 35.8592 38.8271C35.8592 38.1932 35.8592 19.8195 35.8592 18.7904C35.8592 11.3509 29.8065 5.29813 22.3672 5.29813ZM11.469 2.34602H15.2665V4.70531H11.469V2.34602ZM14.6135 21.7071H12.122V19.2774H14.6135V21.7071ZM16.5724 16.5404C16.5724 16.7555 16.3973 16.9314 16.1814 16.9314C15.5684 16.9314 11.1405 16.9314 10.5541 16.9314C10.339 16.9314 10.163 16.7555 10.163 16.5404V7.44242C10.163 7.22656 10.339 7.05141 10.5541 7.05141H16.1814C16.3973 7.05141 16.5724 7.22656 16.5724 7.44242V16.5404ZM20.8477 10.8184H18.9185V7.64414H22.3672C28.513 7.64414 33.5132 12.6443 33.5132 18.7902V23.5566C32.6006 22.7566 31.4744 22.1951 30.2326 21.9683V20.2033C30.2326 15.0287 26.0223 10.8184 20.8477 10.8184ZM24.4833 28.7187C24.4833 26.6127 25.9323 24.8384 27.8866 24.3417C30.7388 23.6145 33.5131 25.7852 33.5131 28.7187V30.8911C33.0505 30.8911 24.8306 30.8911 24.4832 30.8911V28.7187H24.4833ZM33.5132 37.654H6.48679V33.2372H33.5132V37.654Z" fill="#1A3967"/>
</g>
<defs>
<clipPath id="clip0">
<rect width="40" height="40" fill="white"/>
</clipPath>
</defs>
</svg>
