<svg width="40" height="40" viewBox="0 0 40 40" fill="none" xmlns="http://www.w3.org/2000/svg">
<path d="M20 24.7656C19.3538 24.7656 18.8281 24.2399 18.8281 23.5938C18.8281 23.1217 19.109 22.6978 19.5436 22.5137C20.0684 22.2915 20.6964 22.4811 21.267 23.0339C21.7319 23.4842 22.4737 23.4725 22.924 23.0077C23.3744 22.5429 23.3626 21.801 22.8979 21.3507C22.3688 20.8381 21.7807 20.4759 21.1719 20.2714V18.9062C21.1719 18.2591 20.6472 17.7344 20 17.7344C19.3528 17.7344 18.8281 18.2591 18.8281 18.9062V20.279C18.7616 20.3027 18.6954 20.3277 18.6297 20.3555C17.3265 20.9074 16.4844 22.1785 16.4844 23.5938C16.4844 25.5323 18.0615 27.1094 20 27.1094C20.6461 27.1094 21.1719 27.6351 21.1719 28.2812C21.1719 28.7723 20.8621 29.2152 20.4011 29.383C19.7991 29.6022 19.0984 29.3049 18.4787 28.567C18.0625 28.0714 17.3233 28.0071 16.8277 28.4234C16.3321 28.8396 16.2678 29.5788 16.684 30.0744C17.3176 30.8287 18.055 31.3459 18.8282 31.6062V32.9688C18.8282 33.6159 19.3529 34.1406 20.0001 34.1406C20.6472 34.1406 21.1719 33.6159 21.1719 32.9688V31.5959C21.1824 31.5922 21.1929 31.589 21.2033 31.5852C22.5863 31.0815 23.5156 29.7537 23.5156 28.2812C23.5156 26.3427 21.9385 24.7656 20 24.7656Z" fill="#1A3967"/>
<path d="M30.853 17.5984C29.4602 15.8848 27.868 14.5197 26.1202 13.538C26.4065 13.1993 26.6323 12.8022 26.7782 12.3596C27.3505 10.6167 26.5145 8.54641 24.3807 7.87195L27.372 2.65594C27.7495 1.99766 27.4104 1.15922 26.6827 0.947656C24.5198 0.318828 22.2716 0 20 0C17.7284 0 15.4802 0.318828 13.3173 0.947656C12.5888 1.15945 12.251 1.99844 12.628 2.65594L15.6193 7.87203C13.4939 8.54305 12.6473 10.6103 13.2221 12.3605C13.3675 12.802 13.5933 13.1988 13.8804 13.5377C12.1323 14.5194 10.54 15.8847 9.14703 17.5984C6.36258 21.0239 4.76562 25.3448 4.76562 29.4531C4.76562 37.9759 11.5662 40 20 40C28.4398 40 35.2344 37.9724 35.2344 29.4531C35.2344 25.3448 33.6374 21.0239 30.853 17.5984ZM15.4294 2.82953C16.9245 2.5068 18.4561 2.34375 20 2.34375C21.5439 2.34375 23.0755 2.5068 24.5706 2.82953L21.9899 7.32969C20.6681 7.14516 19.3323 7.14523 18.0102 7.32977L15.4294 2.82953ZM16.195 10.1481C18.2118 9.48656 20.3218 9.36117 22.3731 9.77125C22.3755 9.77172 22.378 9.77219 22.3805 9.77266C22.8586 9.86859 23.3335 9.99344 23.8034 10.1476C24.4175 10.35 24.7531 11.0143 24.5518 11.6273C24.4055 12.0713 24.0191 12.3771 23.5647 12.4266C22.3962 12.0608 21.2045 11.875 20 11.875C18.798 11.875 17.6085 12.06 16.4423 12.4244C15.9809 12.3769 15.5936 12.0689 15.4485 11.6284C15.2469 11.0143 15.5825 10.3499 16.195 10.1481ZM20 37.6719C10.8441 37.6719 7.10938 35.2797 7.10938 29.4531C7.10938 25.9264 8.55102 22.0474 10.9656 19.0767C13.5121 15.944 16.7205 14.2188 20 14.2188C23.6098 14.2188 26.7673 16.2877 29.0344 19.0767C31.449 22.0474 32.8906 25.9264 32.8906 29.4531C32.8906 35.2797 29.1559 37.6719 20 37.6719Z" fill="#1A3967"/>
</svg>
