<svg width="40" height="40" viewBox="0 0 40 40" fill="none" xmlns="http://www.w3.org/2000/svg">
<path d="M37.7572 7.79685L36.9726 5.75762L35.5967 7.45445C35.5537 7.50878 31.2023 12.8065 25.4776 13.624C24.391 13.7794 23.3764 13.9815 22.396 14.2077C22.6651 9.75649 20.8482 5.50998 16.9883 1.55659L15.4633 0L14.8695 2.09862C14.8556 2.14284 13.5391 6.67489 10.1947 8.71539C6.53063 10.958 4.19701 13.437 3.07252 16.2873C1.93659 18.9814 1.90753 22.0145 2.99166 24.7298C3.75037 26.5926 5.22057 28.0759 7.07645 28.8513C7.25815 28.9205 7.44325 28.9804 7.63111 29.0307C7.53414 30.2907 7.64517 31.558 7.95961 32.7819C7.2786 32.8413 6.62792 32.8716 6.01893 32.8716C4.34752 32.904 2.68124 32.6759 1.08004 32.1957L0.212036 34.571C2.0916 35.1604 4.05463 35.4399 6.02398 35.3985C7.00254 35.3949 7.98006 35.3338 8.95143 35.2153C9.3668 35.9442 9.87661 36.615 10.4676 37.2103C12.5139 39.1111 15.2367 40.1122 18.0269 39.99C22.2958 39.8924 26.4181 38.4151 29.7771 35.7788L30.1473 35.4882C33.6219 32.7667 44.1807 24.4986 37.7572 7.79685ZM8.05564 26.5176L8.03542 26.5101C6.78696 25.9916 5.80256 24.9884 5.3076 23.7304C4.48737 21.6301 4.52638 19.2915 5.41625 17.2198C6.33353 14.8937 8.32223 12.8179 11.5074 10.8721C13.7296 9.38487 15.4708 7.28286 16.5183 4.82265C18.9902 7.5759 20.1705 11.2528 19.7629 14.9304C16.9479 15.7886 14.3758 17.3004 12.2567 19.3424C10.2481 21.3219 8.79879 23.7973 8.05564 26.5176ZM28.5945 33.4932L28.2155 33.7927C23.077 37.8623 15.4722 38.6393 12.2567 35.4238C12.044 35.2105 11.8456 34.9834 11.6628 34.7441C16.8342 33.5665 23.1376 30.5216 29.6116 23.5283L27.7569 21.8112C21.4269 28.6504 15.3408 31.4452 10.4802 32.4243C10.1336 31.244 10.0317 30.0054 10.1808 28.7843C10.5659 25.8692 11.9268 23.1704 14.0419 21.1277C16.6459 18.5224 20.5046 16.8862 25.8351 16.1256C29.7243 15.373 33.2932 13.4568 36.0692 10.6308C40.3599 24.28 31.877 30.9233 28.5945 33.4932Z" fill="#1A3967"/>
<path d="M29.388 19.9614L31.3198 21.59C31.8589 20.949 32.3988 20.2789 32.9396 19.5798L30.9383 18.0371C30.4215 18.708 29.9035 19.3473 29.388 19.9614Z" fill="#1A3967"/>
</svg>
