<svg width="50" height="40" viewBox="0 0 50 40" fill="none" xmlns="http://www.w3.org/2000/svg">
<path d="M33.683 21.0955C31.7405 20.2408 30.2253 18.9587 29.1375 17.2493C28.0497 15.5399 27.5058 13.5197 27.5058 11.1887C27.5058 7.84762 28.5548 5.12812 30.6527 3.03022C32.7506 1.01002 35.4312 -8.7738e-05 38.6946 -8.7738e-05C41.958 -8.7738e-05 44.6775 1.04886 46.8531 3.14677C48.951 5.24467 50 7.92532 50 11.1887C50 12.7427 49.8057 14.2967 49.4172 15.8507C49.0287 17.4047 48.174 19.7357 46.8531 22.8437L40.0932 39.627H28.5548L33.683 21.0955ZM6.17715 21.0955C4.23465 20.2408 2.7195 18.9587 1.6317 17.2493C0.543898 15.5399 0 13.5197 0 11.1887C0 7.84762 1.04895 5.12812 3.14685 3.03022C5.24476 1.01002 7.92541 -8.7738e-05 11.1888 -8.7738e-05C14.4522 -8.7738e-05 17.1717 1.04886 19.3473 3.14677C21.4452 5.24467 22.4942 7.92532 22.4942 11.1887C22.4942 12.7427 22.2999 14.2967 21.9114 15.8507C21.5229 17.4047 20.6682 19.7357 19.3473 22.8437L12.5874 39.627H1.04895L6.17715 21.0955Z" fill="#FBFBFB"/>
</svg>
