<svg width="50" height="40" viewBox="0 0 50 40" fill="none" xmlns="http://www.w3.org/2000/svg">
<path d="M16.317 18.5315C18.2595 19.3862 19.7747 20.6682 20.8625 22.3776C21.9503 24.087 22.4942 26.1072 22.4942 28.4382C22.4942 31.7793 21.4452 34.4988 19.3473 36.5967C17.2494 38.6169 14.5688 39.627 11.3054 39.627C8.04196 39.627 5.32245 38.5781 3.14685 36.4802C1.04895 34.3823 0 31.7016 0 28.4382C0 26.8842 0.19425 25.3302 0.58275 23.7762C0.971251 22.2222 1.82595 19.8912 3.14685 16.7832L9.90676 0H21.4452L16.317 18.5315ZM43.8228 18.5315C45.7653 19.3862 47.2805 20.6682 48.3683 22.3776C49.4561 24.087 50 26.1072 50 28.4382C50 31.7793 48.951 34.4988 46.8531 36.5967C44.7552 38.6169 42.0746 39.627 38.8112 39.627C35.5478 39.627 32.8283 38.5781 30.6527 36.4802C28.5548 34.3823 27.5058 31.7016 27.5058 28.4382C27.5058 26.8842 27.7001 25.3302 28.0886 23.7762C28.4771 22.2222 29.3318 19.8912 30.6527 16.7832L37.4126 0H48.951L43.8228 18.5315Z" fill="#FBFBFB"/>
</svg>
