<?xml version="1.0" encoding="utf-8"?>
<!-- Generator: Adobe Illustrator 16.0.4, SVG Export Plug-In . SVG Version: 6.00 Build 0)  -->
<!DOCTYPE svg PUBLIC "-//W3C//DTD SVG 1.1//EN" "http://www.w3.org/Graphics/SVG/1.1/DTD/svg11.dtd">
<svg version="1.1" id="Layer_1" xmlns="http://www.w3.org/2000/svg" xmlns:xlink="http://www.w3.org/1999/xlink" x="0px" y="0px"
	 width="177px" height="81px" viewBox="0 0 177 81" enable-background="new 0 0 177 81" xml:space="preserve">
<polygon fill="#1A3967" points="83.162,5.07 82.954,13.37 86.379,12.708 "/>
<polygon fill="#1A3967" points="95.923,19.156 96.587,22.581 104.224,19.362 "/>
<polygon fill="#1A3967" points="76.506,22.914 68.868,26.133 77.169,26.337 "/>
<polygon fill="#1A3967" points="81.382,14.136 74.776,9.133 78.748,16.422 "/>
<polygon fill="#1A3967" points="100.163,10.977 92.872,14.949 95.159,17.584 "/>
<polygon fill="#1A3967" points="72.93,34.517 80.221,30.546 77.934,27.912 "/>
<polygon fill="#1A3967" points="77.768,17.872 69.544,16.841 76.629,21.169 "/>
<polygon fill="#1A3967" points="92.452,5.746 88.125,12.831 91.423,13.97 "/>
<polygon fill="#1A3967" points="95.325,27.623 103.546,28.655 96.464,24.326 "/>
<circle fill="#1A3967" cx="86.598" cy="22.784" r="6.778"/>
<path fill="#1A3967" d="M160.753,60.866c-1.113,0-1.301,1.858-3.348,4.088c-1.301,1.393-3.438,2.788-6.598,2.788
	c-7.996,0-11.527-8.365-11.527-15.337c0-2.789,0.373-3.439,1.674-3.439h16.082c4.646,0,5.299-0.651,5.299-3.531
	c0-7.436-5.207-15.804-16.361-15.804c-12.828,0-20.449,10.04-20.449,22.495c0,12.457,8.178,22.495,20.264,22.495
	c4.461,0,8.365-1.58,11.99-5.02c2.418-2.323,4.275-5.763,4.275-7.437C162.054,61.236,161.589,60.866,160.753,60.866z
	 M146.159,32.605c3.719,0,5.02,2.23,5.02,5.764c0,6.414-3.902,7.62-9.389,7.62c-1.766,0-2.51-0.742-2.51-2.416
	C139.28,38.183,142.067,32.605,146.159,32.605z"/>
<path fill="#1A3967" d="M127.497,70.772l-0.975-0.006c-2.152-0.774-7.113,0.264-7.113-6V35.021h7.064
	c0.836,0,1.023-0.278,1.023-1.952c0-1.672-0.188-1.951-1.023-1.951h-7.064v-9.574c0-6.508,1.209-11.62,4.09-11.62
	c3.719,0,1.58,10.783,6.32,10.783c3.348,0,4.369-7.994,4.369-9.668c0-2.416-4.184-3.718-8.365-3.718
	c-11.342,0-17.756,10.226-18.592,21.752c-0.092,1.301-0.186,2.045-1.209,2.23c-2.508,0.559-3.904,1.302-3.904,2.323
	c0,1.395,0.932,1.395,2.416,1.395c1.303,0,2.791,0,2.791,1.954V67.37c0,3.906-5.949,1.953-5.949,4.649
	c0,0.785,0.666,1.403,1.98,1.472c0.084,0.053,0.168,0.088,0.264,0.088h23.877c0.486,0,0.877-0.805,0.877-1.469
	C128.374,71.447,127.983,70.772,127.497,70.772z"/>
<path fill="#1A3967" d="M94.397,66.361V32.524c0-2.511-0.09-3.161-0.926-3.161c-1.211,0-8.461,5.019-14.502,6.507
	c-0.744,0.188-1.859,0.651-1.859,1.58c0,2.043,5.204,0.371,5.204,4.276v26.026c0,2.309-2.327,2.191-3.687,2.748l-1.289,0.005V54.372
	c0-0.836-0.218-2.711-1.891-2.711s-1.952,1.875-1.952,2.711v8.62H59.684l-1.436-0.462l-0.011-0.027v-3.338V12.572
	c0-2.046,0.245-3.347,2.289-3.904c2.417-0.743,3.718-1.021,3.718-1.859c0-1.021-0.929-1.115-2.508-1.115l-2.039-0.045h-0.112
	l-0.003-0.016H38.305l-0.01,0.016h-0.229c0,0-0.892,0.032-1.691,0.533c0,0,0.01,0.039,0.013,0.058
	c-0.268,0.153-0.564,0.493-1.09,1.222L7.411,48.082c-0.559,0.743-0.652,1.396-0.652,4.836c0,0.463,0.373,0.649,0.93,0.649h18.686
	c0.65,0,0.93,0.277,0.93,2.602v9.391c0,3.253-1.488,4.367-5.299,4.739c-1.395,0.187-1.674,0.743-1.674,1.581
	c0,0.779,0.463,1.227,1.377,1.354c0.417,0.154,0.902,0.251,2.586,0.251h73.594c-0.496,0,0.102-0.156,0.574-0.382
	c0.963-0.201,1.514-0.635,1.514-1.351C99.976,68.964,94.397,71.752,94.397,66.361z M39.633,69.675V8.679l-0.056-1.001
	c0.604,0.337,1.651,0.618,3.115,1.068c2.043,0.557,2.288,1.858,2.288,3.904v46.593v7.26c0,0,0.335,2.5-2.076,3.402
	C41.252,70.131,39.633,69.675,39.633,69.675z M29.441,30.514c-1.581,0.465-2.046,0.931-2.046,2.231v13.014
	c0,2.51-0.557,2.975-2.881,2.975H14.289c-1.116,0-1.767-0.279-1.767-1.395c0-0.651,1.395-2.882,14.316-21.473
	c7.033-10.15,8.242-11.676,10.053-13.872l0.059,15.198C35.895,27.467,35.836,28.311,29.441,30.514z"/>
<g>
	<path fill="#1A3967" d="M165.588,74.476c-2.46,0-4.332-1.872-4.332-4.332s1.872-4.332,4.332-4.332s4.332,1.872,4.332,4.332
		S168.048,74.476,165.588,74.476z M165.588,66.58c-2.027,0-3.563,1.536-3.563,3.564c0,2.028,1.536,3.564,3.563,3.564
		c2.028,0,3.564-1.536,3.564-3.564C169.152,68.116,167.616,66.58,165.588,66.58z M166.717,70.563l0.911,1.86H166.5l-0.852-1.728
		h-0.816v1.728h-0.996v-4.728h2.196c0.912,0,1.62,0.48,1.62,1.488C167.652,70,167.221,70.372,166.717,70.563z M165.96,68.608h-1.128
		v1.212h1.128c0.433,0,0.672-0.216,0.672-0.612C166.632,68.788,166.38,68.608,165.96,68.608z"/>
</g>
</svg>
