<svg width="50" height="50" viewBox="0 0 50 50" fill="none" xmlns="http://www.w3.org/2000/svg">
<path d="M18.6152 37.9834L17.7979 43.4375L21.8877 46.1641L18.6152 37.9834Z" fill="#1A3967"/>
<path d="M14.7627 43.9229C14.7678 43.8891 14.6485 44.684 16.4883 32.4219C15.7428 32.4219 14.1375 32.4219 13.2812 32.4219C9.24219 32.4219 5.95703 35.707 5.95703 39.7461V48.5352C5.95703 49.3438 6.61328 50 7.42187 50H22.3594L15.3984 45.3594C14.9258 45.0449 14.6777 44.4844 14.7627 43.9229Z" fill="#1A3967"/>
<path d="M29.708 34.2881L25 46.0557L20.293 34.2881C21.7559 34.8486 23.3428 35.1563 25 35.1563C26.6582 35.1563 28.2451 34.8486 29.708 34.2881Z" fill="#1A3967"/>
<path d="M32.2021 43.4375L31.3838 37.9834L28.1123 46.1641L32.2021 43.4375Z" fill="#1A3967"/>
<path d="M36.7188 32.4219C35.8625 32.4219 34.257 32.4219 33.5117 32.4219C33.609 33.0703 35.1398 43.2735 35.2373 43.9229C35.3223 44.4844 35.0742 45.0449 34.6016 45.3594L27.6406 50H42.5781C43.3867 50 44.043 49.3438 44.043 48.5352V39.7461C44.043 35.707 40.7578 32.4219 36.7188 32.4219Z" fill="#1A3967"/>
<path d="M38.1836 14.9004V21.9727C38.1836 22.3887 38.1641 22.7998 38.126 23.2061C39.8604 22.6182 41.1133 20.9736 41.1133 19.043C41.1133 17.1338 39.8887 15.5039 38.1836 14.9004Z" fill="#1A3967"/>
<path d="M11.8164 14.9004V21.9727C11.8164 22.3887 11.8359 22.7998 11.874 23.2061C10.1396 22.6182 8.88672 20.9736 8.88672 19.043C8.88672 17.1338 10.1113 15.5039 11.8164 14.9004Z" fill="#1A3967"/>
<path d="M29.542 11.7188H20.458C19.874 14.584 17.6113 16.8467 14.7461 17.4307V21.9727C14.7461 27.627 19.3457 32.2266 25 32.2266C30.6543 32.2266 35.2539 27.627 35.2539 21.9727V17.4307C32.3887 16.8467 30.126 14.584 29.542 11.7188ZM25 26.3672C22.5771 26.3672 20.6055 24.3955 20.6055 21.9727C20.6055 21.1641 21.2617 20.5078 22.0703 20.5078C22.8789 20.5078 23.5352 21.1641 23.5352 21.9727C23.5352 22.7803 24.1924 23.4375 25 23.4375C25.8076 23.4375 26.4648 22.7803 26.4648 21.9727C26.4648 21.1641 27.1211 20.5078 27.9297 20.5078C28.7383 20.5078 29.3945 21.1641 29.3945 21.9727C29.3945 24.3955 27.4229 26.3672 25 26.3672Z" fill="#1A3967"/>
<path d="M25.0002 0H13.2814C12.1901 0 11.4866 1.14951 11.9709 2.12012L13.841 5.85938H13.2814C12.4728 5.85938 11.8166 6.51562 11.8166 7.32422V14.6484H13.2814C15.7043 14.6484 17.6759 12.6768 17.6759 10.2539C17.6759 9.44531 18.3322 8.78906 19.1408 8.78906H30.8595C31.6681 8.78906 32.3244 9.44531 32.3244 10.2539C32.3244 12.6768 34.2961 14.6484 36.7189 14.6484H38.1837V13.1836C38.1837 5.91406 32.2697 0 25.0002 0Z" fill="#1A3967"/>
</svg>
