<svg width="50" height="50" viewBox="0 0 50 50" fill="none" xmlns="http://www.w3.org/2000/svg">
<path d="M25.4082 32.165L25 31.3369L24.5918 32.165C24.3779 32.5977 23.9658 32.8965 23.4883 32.9658L22.5752 33.0986L23.2363 33.7432C23.5811 34.0801 23.7393 34.5645 23.6572 35.04L23.502 35.9492L24.3184 35.5195C24.7451 35.2959 25.2549 35.2959 25.6817 35.5195L26.4981 35.9492L26.3428 35.04C26.2608 34.5645 26.419 34.0801 26.7637 33.7432L27.4248 33.0986L26.5117 32.9658C26.0342 32.8965 25.6221 32.5977 25.4082 32.165Z" fill="#1A3967"/>
<path d="M38.8945 25.2822L26.6716 18.4917C26.9273 18.0625 27.3948 17.7734 27.9297 17.7734H30.8594C33.2825 17.7734 35.2539 15.8021 35.2539 13.3789V11.9141H36.7188C37.5273 11.9141 38.1836 11.2578 38.1836 10.4492V1.46484C38.1836 0.65625 37.5273 0 36.7188 0H30.8594V11.9141H32.3242V13.3789C32.3242 14.1866 31.6671 14.8438 30.8594 14.8438H27.9297C26.805 14.8438 25.7781 15.2689 25 15.9663C24.2219 15.2689 23.195 14.8438 22.0703 14.8438H19.1406C18.3329 14.8438 17.6758 14.1866 17.6758 13.3789V11.9141H19.1406V0H13.2812C12.4727 0 11.8164 0.65625 11.8164 1.46484V10.4492C11.8164 11.2578 12.4727 11.9141 13.2812 11.9141H14.7461V13.3789C14.7461 15.8021 16.7175 17.7734 19.1406 17.7734H22.0703C22.6052 17.7734 23.0727 18.0625 23.3284 18.4917L11.1055 25.2822C10.6396 25.54 10.3516 26.0303 10.3516 26.5625V41.2109C10.3516 41.7432 10.6396 42.2334 11.1055 42.4912L24.2891 49.8154C24.7314 50.0615 25.2686 50.0615 25.7109 49.8154L38.8945 42.4912C39.3604 42.2334 39.6484 41.7432 39.6484 41.2109V26.5625C39.6484 26.0303 39.3604 25.54 38.8945 25.2822ZM31.5947 33.125L29.3604 35.3037L29.8877 38.3789C30.0928 39.5742 28.835 40.4873 27.7627 39.9238L25 38.4717L22.2373 39.9238C21.165 40.4873 19.9072 39.5742 20.1123 38.3789L20.6396 35.3037L18.4053 33.125C17.5371 32.2793 18.0166 30.8008 19.2168 30.626L22.3057 30.1777L23.6865 27.3789C24.2227 26.292 25.7773 26.292 26.3135 27.3789L27.6943 30.1777L30.7832 30.626C31.9824 30.8008 32.4629 32.2783 31.5947 33.125Z" fill="#1A3967"/>
<path d="M22.0703 0H27.9297V11.9141H22.0703V0Z" fill="#1A3967"/>
</svg>
