<svg width="50" height="50" viewBox="0 0 50 50" fill="none" xmlns="http://www.w3.org/2000/svg">
<g clip-path="url(#clip0)">
<path d="M0.000244141 36.7934V41.1793H17.6414V35.3314H1.46222C0.65521 35.3314 0.000244141 35.9864 0.000244141 36.7934Z" fill="#1A3967"/>
<path d="M0.000244141 48.4892C0.000244141 49.2962 0.65521 49.9512 1.46222 49.9512H17.6414V44.1033H0.000244141V48.4892Z" fill="#1A3967"/>
<path d="M48.5379 35.3314H32.2612L32.2622 41.1793H49.9999V36.7934C49.9999 35.9864 49.3449 35.3314 48.5379 35.3314Z" fill="#1A3967"/>
<path d="M20.5671 35.3314L20.5652 49.9512H29.3371L29.3351 35.3314H20.5671Z" fill="#1A3967"/>
<path d="M32.2622 49.9512H48.4404C49.2474 49.9512 49.9024 49.2962 49.9024 48.4892V44.1033H32.2612L32.2622 49.9512Z" fill="#1A3967"/>
<path d="M28.7495 19.6806C27.5442 17.5913 24.8556 16.8636 22.7583 18.0753C20.6589 19.2878 19.9406 21.9671 21.153 24.0665C22.3645 26.1659 25.0448 26.8842 27.1442 25.6717C29.2436 24.4602 29.9619 21.7799 28.7495 19.6806ZM28.7495 19.6806C27.5442 17.5913 24.8556 16.8636 22.7583 18.0753C20.6589 19.2878 19.9406 21.9671 21.153 24.0665C22.3645 26.1659 25.0448 26.8842 27.1442 25.6717C29.2436 24.4602 29.9619 21.7799 28.7495 19.6806ZM49.7103 21.1494L38.0993 0.786946C37.6977 0.0832484 36.8011 -0.15944 36.0993 0.244066L0.733119 20.6065C0.0342936 21.009 -0.20742 21.8998 0.193162 22.5996L5.80423 32.4075H33.0574L49.1694 23.1406C49.8672 22.739 50.109 21.8491 49.7103 21.1494ZM15.5537 28.9875L13.0215 30.4495C12.3266 30.851 11.4299 30.6181 11.0245 29.9144C10.62 29.2156 10.8597 28.3208 11.5595 27.9173L14.0917 26.4553C14.7905 26.0518 15.6852 26.2916 16.0888 26.9904C16.4923 27.6902 16.2525 28.584 15.5537 28.9875ZM28.6062 28.2048C25.0994 30.2292 20.6374 29.0216 18.6209 25.5285C16.6004 22.0304 17.7973 17.5636 21.2963 15.5432C24.7875 13.5276 29.267 14.7284 31.2816 18.2186C33.3021 21.7176 32.1052 26.1844 28.6062 28.2048ZM38.343 15.8297L35.8108 17.2917C35.1159 17.6932 34.2202 17.4603 33.8138 16.7566C33.4103 16.0578 33.65 15.163 34.3488 14.7595L36.881 13.2976C37.5808 12.8941 38.4745 13.1338 38.878 13.8326C39.2825 14.5324 39.0428 15.4262 38.343 15.8297ZM22.7583 18.0753C20.6589 19.2878 19.9406 21.9671 21.153 24.0665C22.3645 26.1659 25.0448 26.8842 27.1442 25.6717C29.2436 24.4602 29.9619 21.7799 28.7495 19.6806C27.5442 17.5912 24.8557 16.8636 22.7583 18.0753Z" fill="#1A3967"/>
</g>
<defs>
<clipPath id="clip0">
<rect width="50" height="50" fill="white"/>
</clipPath>
</defs>
</svg>
