<svg width="50" height="50" viewBox="0 0 50 50" fill="none" xmlns="http://www.w3.org/2000/svg">
<path d="M48.5352 7.42188H1.46484C0.65625 7.42188 0 8.07812 0 8.88672V13.2812H50V8.88672C50 8.07812 49.3438 7.42188 48.5352 7.42188ZM33.7891 25H32.3242V27.9297H33.7891C34.5967 27.9297 35.2539 27.2725 35.2539 26.4648C35.2539 25.6572 34.5967 25 33.7891 25ZM33.7891 25H32.3242V27.9297H33.7891C34.5967 27.9297 35.2539 27.2725 35.2539 26.4648C35.2539 25.6572 34.5967 25 33.7891 25ZM33.7891 25H32.3242V27.9297H33.7891C34.5967 27.9297 35.2539 27.2725 35.2539 26.4648C35.2539 25.6572 34.5967 25 33.7891 25ZM33.7891 25H32.3242V27.9297H33.7891C34.5967 27.9297 35.2539 27.2725 35.2539 26.4648C35.2539 25.6572 34.5967 25 33.7891 25ZM0 16.2109V41.1133C0 41.9219 0.65625 42.5781 1.46484 42.5781H48.5352C49.3438 42.5781 50 41.9219 50 41.1133V16.2109H0ZM7.42188 30.8594C6.61328 30.8594 5.95703 30.2031 5.95703 29.3945C5.95703 28.5859 6.61328 27.9297 7.42188 27.9297C8.23047 27.9297 8.88672 28.5859 8.88672 29.3945C8.88672 30.2031 8.23047 30.8594 7.42188 30.8594ZM20.5303 23.998L17.6055 32.7715C17.5976 32.7812 17.3 33.7891 16.2109 33.7891C15.5374 33.7891 14.9915 33.3357 14.8164 32.7715L11.8916 23.998C11.6357 23.2305 12.0508 22.4014 12.8184 22.1455C13.5859 21.8896 14.415 22.3047 14.6709 23.0723L16.2109 27.6924L17.751 23.0723C18.0068 22.3047 18.8359 21.8896 19.6035 22.1455C20.3711 22.4014 20.7861 23.2305 20.5303 23.998ZM26.4648 32.3242C26.4648 33.1328 25.8086 33.7891 25 33.7891C24.1914 33.7891 23.5352 33.1328 23.5352 32.3242V23.5352C23.5352 22.7266 24.1914 22.0703 25 22.0703C25.8086 22.0703 26.4648 22.7266 26.4648 23.5352V32.3242ZM33.7891 30.8594H32.3242V32.3242C32.3242 33.1328 31.668 33.7891 30.8594 33.7891C30.0508 33.7891 29.3945 33.1328 29.3945 32.3242V23.5352C29.3945 22.7266 30.0508 22.0703 30.8594 22.0703H33.7891C36.2119 22.0703 38.1836 24.042 38.1836 26.4648C38.1836 28.8877 36.2119 30.8594 33.7891 30.8594ZM42.5781 30.8594C41.7695 30.8594 41.1133 30.2031 41.1133 29.3945C41.1133 28.5859 41.7695 27.9297 42.5781 27.9297C43.3867 27.9297 44.043 28.5859 44.043 29.3945C44.043 30.2031 43.3867 30.8594 42.5781 30.8594ZM33.7891 25H32.3242V27.9297H33.7891C34.5967 27.9297 35.2539 27.2725 35.2539 26.4648C35.2539 25.6572 34.5967 25 33.7891 25ZM33.7891 25H32.3242V27.9297H33.7891C34.5967 27.9297 35.2539 27.2725 35.2539 26.4648C35.2539 25.6572 34.5967 25 33.7891 25ZM33.7891 25H32.3242V27.9297H33.7891C34.5967 27.9297 35.2539 27.2725 35.2539 26.4648C35.2539 25.6572 34.5967 25 33.7891 25ZM33.7891 25H32.3242V27.9297H33.7891C34.5967 27.9297 35.2539 27.2725 35.2539 26.4648C35.2539 25.6572 34.5967 25 33.7891 25ZM33.7891 25H32.3242V27.9297H33.7891C34.5967 27.9297 35.2539 27.2725 35.2539 26.4648C35.2539 25.6572 34.5967 25 33.7891 25Z" fill="#1A3967"/>
</svg>
